Coordinates
version=1
nRows=23
nColumns=30
inDegrees=yes

Units are S.I. units (second, meters, Newtons, ...)
Angles are in degrees.

endheader
time	floatyaw	floatroll	floatpitch	floatx	floaty	floatz	pro_sup_l	deviation_l	flexion_l	cmc_flexion_l	cmc_abduction_l	mp_flexion_l	ip_flexion_l	2mcp_flexion_l	2mcp_abduction_l	2pm_flexion_l	2md_flexion_l	3mcp_flexion_l	3mcp_abduction_l	3pm_flexion_l	3md_flexion_l	4mcp_flexion_l	4mcp_abduction_l	4pm_flexion_l	4md_flexion_l	5mcp_flexion_l	5mcp_abduction_l	5pm_flexion_l	5md_flexion_l
-0.995000	-3.835761	-5.011433	94.526577	-0.007459	-0.269013	-0.005251	92.965284	-0.367888	-1.799046	27.829997	2.123379	-18.614219	-33.318236	17.880180	7.037326	33.961549	20.593015	8.042639	4.939412	35.981884	21.505958	-2.710674	-3.768191	52.583160	32.851283	-23.468891	-11.076521	63.782218	50.897089
-0.985000	-3.835761	-5.011433	94.526577	-0.007456	-0.268993	-0.005255	92.968189	-0.364026	-1.780741	27.835209	2.087012	-18.613988	-33.339499	17.820825	7.020424	34.020113	20.593586	7.993165	4.934703	36.038242	21.494248	-2.748087	-3.759540	52.633434	32.829616	-23.492701	-11.074112	63.830260	50.879691
-0.975000	-3.835761	-5.011433	94.526577	-0.007458	-0.268979	-0.005248	92.988997	-0.359051	-1.764199	27.858445	2.022699	-18.608501	-33.386024	17.750541	7.008356	34.091599	20.584742	7.946084	4.934459	36.091307	21.468844	-2.784978	-3.752883	52.686771	32.791636	-23.516337	-11.055579	63.876744	50.866693
-0.965000	-3.835761	-5.011433	94.526577	-0.007463	-0.268974	-0.005235	93.023471	-0.352590	-1.754704	27.899307	1.948601	-18.605383	-33.449673	17.686634	7.003572	34.160858	20.566643	7.916243	4.936934	36.127648	21.434291	-2.805133	-3.750305	52.725109	32.745601	-23.524474	-11.022494	63.913812	50.864945
-0.955000	-3.835761	-5.011433	94.526577	-0.007468	-0.268978	-0.005224	93.065108	-0.343948	-1.755127	27.951213	1.883108	-18.610155	-33.515707	17.645105	7.006373	34.210724	20.542900	7.913618	4.939354	36.137757	21.397260	-2.797267	-3.752124	52.735667	32.702412	-23.506172	-10.982949	63.938047	50.876251
-0.945000	-3.835761	-5.011433	94.526577	-0.007469	-0.268984	-0.005223	93.106863	-0.332879	-1.764458	28.002646	1.837334	-18.622138	-33.568213	17.633265	7.015214	34.229881	20.519834	7.938046	4.939390	36.120674	21.365255	-2.762207	-3.756861	52.718119	32.672011	-23.462630	-10.948765	63.952630	50.896626
-0.935000	-3.835761	-5.011433	94.526577	-0.007467	-0.268990	-0.005232	93.142403	-0.320340	-1.778335	28.040831	1.812278	-18.634081	-33.596104	17.646220	7.027737	34.218765	20.503923	7.978861	4.936432	36.084943	21.344309	-2.713835	-3.762216	52.685173	32.659600	-23.409393	-10.930707	63.966590	50.917902
-0.925000	-3.835761	-5.011433	94.526577	-0.007462	-0.268993	-0.005250	93.167138	-0.308569	-1.791309	28.056672	1.801202	-18.635981	-33.597255	17.669474	7.041844	34.189566	20.498672	8.019729	4.931897	36.044994	21.336612	-2.672817	-3.766276	52.656082	32.663698	-23.370475	-10.934151	63.990661	50.930996
-0.915000	-3.835761	-5.011433	94.526577	-0.007457	-0.268997	-0.005268	93.179185	-0.300238	-1.799483	28.048554	1.794820	-18.620823	-33.578561	17.686574	7.056197	34.159593	20.502727	8.046117	4.928345	36.014375	21.339603	-2.656386	-3.768092	52.646666	32.677278	-23.366743	-10.957337	64.031181	50.929438
-0.905000	-3.835761	-5.011433	94.526577	-0.007455	-0.269005	-0.005279	93.179887	-0.297105	-1.801986	28.022834	1.786200	-18.588836	-33.551608	17.687900	7.070051	34.141503	20.510420	8.051544	4.927938	35.999379	21.347337	-2.669807	-3.767386	52.661481	32.691483	-23.404878	-10.992847	64.085198	50.911873
-0.895000	-3.835761	-5.011433	94.526577	-0.007457	-0.269020	-0.005278	93.173376	-0.298964	-1.800689	27.990618	1.773398	-18.547794	-33.526316	17.675944	7.082788	34.136214	20.514529	8.039641	4.931151	35.996847	21.353476	-2.704050	-3.763894	52.692448	32.699922	-23.473390	-11.031314	64.140473	50.882783
-0.885000	-3.835761	-5.011433	94.526577	-0.007462	-0.269039	-0.005268	93.165223	-0.303490	-1.798690	27.962550	1.759413	-18.509237	-33.506230	17.664082	7.093583	34.133079	20.509934	8.021447	4.936505	35.997555	21.354331	-2.740459	-3.757088	52.724367	32.701199	-23.548072	-11.065516	64.181699	50.850793
-0.875000	-3.835761	-5.011433	94.526577	-0.007468	-0.269055	-0.005258	93.160723	-0.307127	-1.798597	27.944278	1.750057	-18.482807	-33.487834	17.669113	7.101371	34.117374	20.496406	8.009839	4.941455	35.992689	21.350270	-2.759645	-3.746479	52.743598	32.698360	-23.603883	-11.093222	64.199426	50.824666
-0.865000	-3.835761	-5.011433	94.526577	-0.007471	-0.269057	-0.005254	93.163217	-0.306707	-1.801348	27.934497	1.750833	-18.471766	-33.463319	17.701365	7.105029	34.080278	20.479016	8.013983	4.943906	35.978807	21.344774	-2.750288	-3.732128	52.744694	32.695836	-23.626910	-11.117694	64.195101	50.808846
-0.855000	-3.835761	-5.011433	94.526577	-0.007466	-0.269042	-0.005263	93.172815	-0.301033	-1.805838	27.925960	1.764155	-18.471885	-33.424298	17.757899	7.103662	34.024803	20.465862	8.036042	4.943481	35.958269	21.341973	-2.714084	-3.714977	52.731726	32.696074	-23.620360	-11.145501	64.178510	50.801570
-0.845000	-3.835761	-5.011433	94.526577	-0.007453	-0.269010	-0.005283	93.186100	-0.291438	-1.809361	27.908785	1.788188	-18.473921	-33.364659	17.822893	7.096966	33.964308	20.464425	8.070856	4.941843	35.936149	21.344590	-2.664745	-3.696884	52.714715	32.698141	-23.601745	-11.182455	64.160588	50.797004
-0.835000	-3.835761	-5.011433	94.526577	-0.007436	-0.268966	-0.005311	93.197521	-0.280873	-1.808762	27.875042	1.817898	-18.468263	-33.282737	17.874993	7.085637	33.915628	20.478683	8.108157	4.941943	35.917156	21.353542	-2.621435	-3.680429	52.704263	32.698838	-23.592984	-11.229753	64.148048	50.789521
-0.825000	-3.835761	-5.011433	94.526577	-0.007416	-0.268918	-0.005341	93.202280	-0.272113	-1.801825	27.823269	1.847608	-18.449624	-33.183474	17.897016	7.071728	33.892125	20.508344	8.136309	4.946632	35.905006	21.368737	-2.599723	-3.668428	52.707487	32.694966	-23.608763	-11.282712	64.143163	50.776550
-0.815000	-3.835761	-5.011433	94.526577	-0.007397	-0.268871	-0.005371	93.199209	-0.266327	-1.788264	27.760838	1.873354	-18.419560	-33.079520	17.882277	7.058669	33.900512	20.549994	8.146415	4.957321	35.903535	21.389651	-2.604676	-3.663153	52.726584	32.684939	-23.649361	-11.332886	64.146601	50.758331
-0.805000	-3.835761	-5.011433	94.526577	-0.007376	-0.268827	-0.005399	93.191736	-0.262902	-1.769840	27.702099	1.893746	-18.385521	-32.988762	17.834909	7.050626	33.941170	20.598931	8.135529	4.973280	35.916870	21.415005	-2.629545	-3.665555	52.759360	32.669205	-23.701431	-11.372069	64.159267	50.736283
-0.795000	-3.835761	-5.011433	94.526577	-0.007351	-0.268783	-0.005428	93.185977	-0.260428	-1.749702	27.662122	1.909475	-18.356987	-32.927432	17.766032	7.051151	34.009234	20.650359	8.107741	4.991868	35.947142	21.442197	-2.660290	-3.674953	52.800314	32.650042	-23.745718	-11.395685	64.181346	50.712477
-0.785000	-3.835761	-5.011433	94.526577	-0.007322	-0.268739	-0.005455	93.186988	-0.258012	-1.731343	27.649156	1.922336	-18.341008	-32.902229	17.689284	7.061524	34.094974	20.699606	8.072429	5.009609	35.991289	21.467495	-2.683087	-3.689345	52.841686	32.631154	-23.767214	-11.404035	64.210251	50.690228
-0.775000	-3.835761	-5.011433	94.526577	-0.007291	-0.268700	-0.005476	93.195724	-0.255960	-1.717581	27.660646	1.933937	-18.339583	-32.907098	17.617543	7.079752	34.184780	20.741943	8.040121	5.023629	36.040333	21.487183	-2.690680	-3.706164	52.875022	32.616692	-23.762642	-11.401354	64.240468	50.673958
